<svg width="20" height="20" viewBox="0 0 20 20" fill="none" xmlns="http://www.w3.org/2000/svg">
<path d="M10 0C15.523 0 20 4.477 20 10C20 15.523 15.523 20 10 20C4.477 20 0 15.523 0 10C0 4.477 4.477 0 10 0ZM10 2C7.87827 2 5.84344 2.84285 4.34315 4.34315C2.84285 5.84344 2 7.87827 2 10C2 12.1217 2.84285 14.1566 4.34315 15.6569C5.84344 17.1571 7.87827 18 10 18C12.1217 18 14.1566 17.1571 15.6569 15.6569C17.1571 14.1566 18 12.1217 18 10C18 7.87827 17.1571 5.84344 15.6569 4.34315C14.1566 2.84285 12.1217 2 10 2ZM13.535 6.381C13.7145 6.19975 13.9566 6.09397 14.2115 6.08532C14.4665 6.07667 14.7152 6.1658 14.9066 6.33447C15.098 6.50313 15.2177 6.73859 15.2412 6.99262C15.2647 7.24666 15.1902 7.50008 15.033 7.701L14.95 7.795L9.364 13.382C9.17335 13.5726 8.91932 13.6866 8.65017 13.7023C8.38102 13.7179 8.11549 13.6342 7.904 13.467L7.808 13.382L5.05 10.624C4.86875 10.4445 4.76297 10.2024 4.75432 9.94745C4.74567 9.69248 4.8348 9.44383 5.00347 9.25242C5.17213 9.06101 5.40758 8.9413 5.66162 8.9178C5.91566 8.89429 6.16908 8.96878 6.37 9.126L6.464 9.21L8.586 11.331L13.536 6.381H13.535Z" fill="#1B2F75"/>
</svg>
