<svg width="44" height="45" viewBox="0 0 44 45" fill="none" xmlns="http://www.w3.org/2000/svg">
<path d="M39 1H5C2.23858 1 0 3.23858 0 6V40C0 42.7614 2.23858 45 5 45H39C41.7614 45 44 42.7614 44 40V6C44 3.23858 41.7614 1 39 1Z" fill="white" fill-opacity="0.1"/>
<path d="M15.033 16.207C17.8043 16.069 19.96 16 21.5 16C23.04 16 25.1965 16.0692 27.9695 16.2075C28.6951 16.2437 29.383 16.542 29.9053 17.0471C30.4276 17.5521 30.7489 18.2295 30.8095 18.9535C30.9365 20.4702 31 21.8063 31 22.962C31 24.1313 30.935 25.486 30.805 27.026C30.7446 27.7417 30.4295 28.412 29.9169 28.9151C29.4043 29.4181 28.7282 29.7206 28.0115 29.7675C25.6412 29.9225 23.4707 30 21.5 30C19.53 30 17.3603 29.9225 14.991 29.7675C14.2745 29.7206 13.5986 29.4184 13.086 28.9156C12.5735 28.4129 12.2582 27.7429 12.1975 27.0275C12.0658 25.4758 12 24.1207 12 22.962C12 21.817 12.0642 20.4803 12.1925 18.952C12.2533 18.2282 12.5747 17.551 13.097 17.0462C13.6193 16.5414 14.307 16.2432 15.0325 16.207H15.033Z" stroke="white" stroke-width="2" stroke-linejoin="round"/>
<path d="M20.001 20.805V25.203C20.0009 25.2805 20.0219 25.3565 20.0616 25.423C20.1014 25.4894 20.1584 25.5439 20.2266 25.5806C20.2948 25.6173 20.3717 25.6348 20.4491 25.6312C20.5264 25.6277 20.6014 25.6033 20.666 25.5605L23.9645 23.3805C24.0234 23.3416 24.0719 23.2888 24.1055 23.2267C24.1391 23.1646 24.1568 23.0952 24.1571 23.0246C24.1574 22.9539 24.1403 22.8844 24.1072 22.822C24.0741 22.7596 24.0261 22.7064 23.9675 22.667L20.6685 20.449C20.604 20.4057 20.529 20.3807 20.4514 20.3767C20.3738 20.3727 20.2966 20.3899 20.2281 20.4265C20.1595 20.463 20.1021 20.5174 20.0621 20.584C20.0221 20.6506 20.001 20.7268 20.001 20.8045V20.805Z" stroke="white" stroke-width="1.7145" stroke-linejoin="round"/>
</svg>
