<svg width="24" height="24" viewBox="0 0 24 24" fill="none" xmlns="http://www.w3.org/2000/svg">
<path d="M17.751 11.198C17.7507 9.85635 17.2176 8.56973 16.2689 7.62104C15.3202 6.67235 14.0336 6.13927 12.692 6.139M21.219 10.844C21.219 9.781 21.0096 8.7284 20.6028 7.74633C20.1959 6.76425 19.5996 5.87193 18.8479 5.12032C18.0962 4.36871 17.2038 3.77253 16.2217 3.36583C15.2396 2.95913 14.187 2.74987 13.124 2.75M12.531 20.217C12.231 20.08 11.932 19.943 11.633 19.78C10.1663 18.9514 8.81897 17.9273 7.62798 16.736C6.08466 15.2826 4.81663 13.5623 3.88498 11.658C3.38658 10.6351 3.04991 9.54111 2.88698 8.415C2.66715 7.27714 2.79324 6.09953 3.24898 5.034C3.53013 4.57598 3.86964 4.15647 4.25898 3.786C4.41696 3.60924 4.60903 3.46621 4.82366 3.36552C5.03829 3.26482 5.27105 3.20852 5.50798 3.2C6.00098 3.274 6.44798 3.532 6.75598 3.923C7.42998 4.672 8.15298 5.346 8.86398 6.057C9.14398 6.297 9.31898 6.637 9.35098 7.005C9.33898 7.315 9.21998 7.61 9.01398 7.841C8.77698 8.141 8.48998 8.415 8.21598 8.701C8.05029 8.86059 7.92354 9.05614 7.84551 9.27255C7.76748 9.48895 7.74026 9.7204 7.76598 9.949C7.93798 10.484 8.23298 10.972 8.62698 11.372C9.09968 12.0169 9.59499 12.645 10.112 13.255C11.0762 14.3673 12.2184 15.3118 13.492 16.05C13.6683 16.1832 13.8768 16.2672 14.0962 16.2936C14.3156 16.3199 14.5381 16.2876 14.741 16.2C15.164 15.963 15.541 15.65 15.851 15.277C16.1196 14.9503 16.504 14.74 16.924 14.69C17.298 14.71 17.65 14.87 17.91 15.14C18.246 15.426 18.533 15.763 18.845 16.075C19.157 16.387 19.407 16.612 19.669 16.898C19.983 17.1753 20.278 17.4707 20.554 17.784C20.768 18.061 20.871 18.409 20.841 18.757C20.7295 19.1737 20.4895 19.5446 20.155 19.817C19.6839 20.3068 19.1117 20.6878 18.4781 20.9336C17.8446 21.1794 17.1651 21.284 16.487 21.24C15.114 21.1638 13.7687 20.8161 12.531 20.217Z" stroke="#1B2F75" stroke-width="1.5" stroke-miterlimit="10" stroke-linecap="round"/>
</svg>
