<svg width="21" height="21" viewBox="0 0 21 21" fill="none" xmlns="http://www.w3.org/2000/svg">
<path d="M11.5 1C11.5 1 13.8354 1.212 16.8061 4.182C19.7779 7.152 19.99 9.485 19.99 9.485M12.2074 4.536C12.2074 4.536 13.198 4.818 14.6839 6.303C16.1697 7.788 16.4529 8.778 16.4529 8.778" fill="#1B2F75"/>
<path d="M11.5 1C11.5 1 13.8354 1.212 16.8061 4.182C19.7779 7.152 19.99 9.485 19.99 9.485M12.2074 4.536C12.2074 4.536 13.198 4.818 14.6839 6.303C16.1697 7.788 16.4529 8.778 16.4529 8.778" stroke="#1B2F75" stroke-width="1.5" stroke-linecap="round"/>
<path d="M6.3457 15.6609C10.0079 19.3268 13.4087 19.7964 15.1523 19.7429L15.1787 20.0125V20.0134L15.1816 20.0427L15.2012 20.2419C13.3476 20.3068 9.7835 19.8135 5.9834 16.0037L6.15918 15.8367L6.16016 15.8376L6.3457 15.6609ZM16.7969 19.7488L16.8076 19.7585C16.62 19.8997 16.4148 20.0158 16.1924 20.0964L16.1406 19.5798C16.2435 19.5334 16.3424 19.4755 16.4385 19.4089L16.7969 19.7488ZM18.2578 18.2927L17.5264 19.0623L17.4717 19.0105L17.1641 18.7175L17.8955 17.948L18.2578 18.2927ZM18.415 14.3894C19.2959 15.1775 19.5098 16.5287 18.9062 17.5291L18.7666 17.3962L18.5322 17.1726C18.923 16.4223 18.7729 15.4498 18.1582 14.8367L18.415 14.3894ZM1.2959 6.44995C1.49092 8.17925 2.3431 11.306 5.65527 14.9363L5.29395 15.28C1.88193 11.5442 0.996464 8.30193 0.795898 6.47729L1.2959 6.44995ZM9.59473 12.239C10.6906 13.3227 11.4754 13.7559 12 13.908L12.2285 13.9607H12.2295C12.258 13.9653 12.286 13.9656 12.3125 13.9685L12.7041 14.3406L12.8086 14.4392C12.6355 14.4806 12.4164 14.4982 12.1484 14.4548H12.1494C11.4878 14.3469 10.5414 13.8819 9.23145 12.5837L9.40625 12.4167L9.40723 12.4177L9.59473 12.239ZM17.5742 13.8445L17.4492 14.0623L17.3242 14.2781L16.2812 13.6765L16.4062 13.4617L16.4053 13.4607L16.5312 13.2429L17.5742 13.8445ZM13.7617 13.0525C14.3145 12.6867 14.9981 12.5934 15.6357 12.7937L15.3789 13.24C14.9529 13.1349 14.5116 13.1955 14.1367 13.408L13.7617 13.0525ZM6.84375 8.16382L7.25 8.54956L7.2666 8.72632C7.34684 9.27926 7.71614 10.1806 8.90527 11.5134L8.71875 11.6921L8.54297 11.8591C7.39346 10.5722 6.9348 9.62304 6.79688 8.94409L6.77148 8.79956C6.73038 8.51633 6.74552 8.28702 6.78516 8.10815L6.84375 8.16382ZM8.08398 4.98608C8.41384 5.73027 8.36992 6.59206 7.96094 7.27319L7.82324 7.14136L7.58887 6.9187C7.84478 6.42595 7.87634 5.82275 7.66699 5.28101L8.08398 4.98608ZM1.34668 4.6228V4.62183L1.56543 4.82983C1.44326 5.02287 1.35257 5.23006 1.30078 5.448L0.975586 5.46558L0.783203 5.47534C0.845816 5.11145 0.993543 4.77559 1.19531 4.47925L1.34668 4.6228ZM7.5498 4.13843L7.13965 4.42847L6.45703 3.46265L6.86621 3.17358L7.5498 4.13843ZM2.91602 2.97046V2.97144L3.09766 3.14429L2.21777 4.07104L1.98633 3.85132L1.85449 3.72632L2.73535 2.79858L2.91602 2.97046ZM3.46582 2.11108C4.32627 1.53825 5.47103 1.65788 6.24707 2.38647L5.82617 2.68335C5.24699 2.19408 4.46191 2.11998 3.84277 2.46948L3.46582 2.11108Z" fill="#1B2F75" stroke="#1B2F75"/>
</svg>
