<svg width="17" height="18" viewBox="0 0 17 18" fill="none" xmlns="http://www.w3.org/2000/svg">
<path d="M16.502 2.35938L15.1074 0.931641C14.543 0.367188 13.5469 0.367188 12.9824 0.931641L5.44531 8.46875L3.71875 13.748L8.96484 11.9883L16.502 4.45117C16.7676 4.18555 16.9336 3.82031 16.9336 3.38867C16.9336 2.99023 16.7676 2.625 16.502 2.35938ZM5.57812 11.2578L6.20898 9.29883L8.13477 11.2246L6.20898 11.8887L5.57812 11.2578ZM6.83984 8.50195L10.8242 4.51758L12.916 6.60938L8.93164 10.5938L6.83984 8.50195ZM11.5215 3.78711L12.252 3.08984L14.377 5.18164L13.6465 5.91211L11.5215 3.78711ZM15.8047 3.75391L15.0742 4.48438L12.9492 2.35938L13.6797 1.66211C13.8789 1.46289 14.2109 1.46289 14.377 1.66211L15.8047 3.05664C15.8711 3.15625 15.9375 3.25586 15.9375 3.38867C15.9375 3.52148 15.8711 3.6543 15.8047 3.75391ZM15.0078 8.00391H16.0039V17.5H0V2.49219H7.50391V3.48828H0.996094V16.5039H15.0078V8.00391Z" fill="#6C757D"/>
</svg>
