<svg width="24" height="24" viewBox="0 0 24 24" fill="none" xmlns="http://www.w3.org/2000/svg">
<path d="M13.5 2C13.5 2 15.8354 2.212 18.8061 5.182C21.7779 8.152 21.99 10.485 21.99 10.485M14.2074 5.536C14.2074 5.536 15.198 5.818 16.6839 7.303C18.1697 8.788 18.4529 9.778 18.4529 9.778" fill="#1B2F75"/>
<path d="M13.5 2C13.5 2 15.8354 2.212 18.8061 5.182C21.7779 8.152 21.99 10.485 21.99 10.485M14.2074 5.536C14.2074 5.536 15.198 5.818 16.6839 7.303C18.1697 8.788 18.4529 9.778 18.4529 9.778" stroke="#1B2F75" stroke-width="1.5" stroke-linecap="round"/>
<path d="M8.3457 16.6609C12.0079 20.3268 15.4087 20.7964 17.1523 20.7429L17.1787 21.0125V21.0134L17.1816 21.0427L17.2012 21.2419C15.3476 21.3068 11.7835 20.8135 7.9834 17.0037L8.15918 16.8367L8.16016 16.8376L8.3457 16.6609ZM18.7969 20.7488L18.8076 20.7585C18.62 20.8997 18.4148 21.0158 18.1924 21.0964L18.1406 20.5798C18.2435 20.5334 18.3424 20.4755 18.4385 20.4089L18.7969 20.7488ZM20.2578 19.2927L19.5264 20.0623L19.4717 20.0105L19.1641 19.7175L19.8955 18.948L20.2578 19.2927ZM20.415 15.3894C21.2959 16.1775 21.5098 17.5287 20.9062 18.5291L20.7666 18.3962L20.5322 18.1726C20.923 17.4223 20.7729 16.4498 20.1582 15.8367L20.415 15.3894ZM3.2959 7.44995C3.49092 9.17925 4.3431 12.306 7.65527 15.9363L7.29395 16.28C3.88193 12.5442 2.99646 9.30193 2.7959 7.47729L3.2959 7.44995ZM11.5947 13.239C12.6906 14.3227 13.4754 14.7559 14 14.908L14.2285 14.9607H14.2295C14.258 14.9653 14.286 14.9656 14.3125 14.9685L14.7041 15.3406L14.8086 15.4392C14.6355 15.4806 14.4164 15.4982 14.1484 15.4548H14.1494C13.4878 15.3469 12.5414 14.8819 11.2314 13.5837L11.4062 13.4167L11.4072 13.4177L11.5947 13.239ZM19.5742 14.8445L19.4492 15.0623L19.3242 15.2781L18.2812 14.6765L18.4062 14.4617L18.4053 14.4607L18.5312 14.2429L19.5742 14.8445ZM15.7617 14.0525C16.3145 13.6867 16.9981 13.5934 17.6357 13.7937L17.3789 14.24C16.9529 14.1349 16.5116 14.1955 16.1367 14.408L15.7617 14.0525ZM8.84375 9.16382L9.25 9.54956L9.2666 9.72632C9.34684 10.2793 9.71614 11.1806 10.9053 12.5134L10.7188 12.6921L10.543 12.8591C9.39346 11.5722 8.9348 10.623 8.79688 9.94409L8.77148 9.79956C8.73038 9.51633 8.74552 9.28702 8.78516 9.10815L8.84375 9.16382ZM10.084 5.98608C10.4138 6.73027 10.3699 7.59206 9.96094 8.27319L9.82324 8.14136L9.58887 7.9187C9.84478 7.42595 9.87634 6.82275 9.66699 6.28101L10.084 5.98608ZM3.34668 5.6228V5.62183L3.56543 5.82983C3.44326 6.02287 3.35257 6.23006 3.30078 6.448L2.97559 6.46558L2.7832 6.47534C2.84582 6.11145 2.99354 5.77559 3.19531 5.47925L3.34668 5.6228ZM9.5498 5.13843L9.13965 5.42847L8.45703 4.46265L8.86621 4.17358L9.5498 5.13843ZM4.91602 3.97046V3.97144L5.09766 4.14429L4.21777 5.07104L3.98633 4.85132L3.85449 4.72632L4.73535 3.79858L4.91602 3.97046ZM5.46582 3.11108C6.32627 2.53825 7.47103 2.65788 8.24707 3.38647L7.82617 3.68335C7.24699 3.19408 6.46191 3.11998 5.84277 3.46948L5.46582 3.11108Z" fill="#1B2F75" stroke="#1B2F75"/>
</svg>
