<?xml version="1.0" encoding="UTF-8"?>
<svg version="1.1" xmlns="http://www.w3.org/2000/svg" width="57" height="39">
<path d="M0 0 C4 1 4 1 6 3 C6 4.32 6 5.64 6 7 C7.051875 6.814375 8.10375 6.62875 9.1875 6.4375 C13 6 13 6 15.75 6.625 C16.4925 6.74875 17.235 6.8725 18 7 C18.433125 6.54625 18.86625 6.0925 19.3125 5.625 C21.58966055 3.43217873 23.84819796 3.21946952 26.92578125 2.91796875 C30.09547269 3.04332378 32.3542394 4.34639963 35 6 C34.67 7.65 34.34 9.3 34 11 C33.28972656 10.98839844 32.57945313 10.97679687 31.84765625 10.96484375 C30.92855469 10.95582031 30.00945313 10.94679688 29.0625 10.9375 C27.68771484 10.92009766 27.68771484 10.92009766 26.28515625 10.90234375 C24.03406673 10.74050951 24.03406673 10.74050951 23 12 C22.66143172 17.32673036 22.66143172 17.32673036 25 22 C26.27875 21.814375 27.5575 21.62875 28.875 21.4375 C32.75 20.875 32.75 20.875 35 22 C35.125 24.375 35.125 24.375 35 27 C32.62839852 29.37160148 31.99378878 29.31983352 28.75 29.375 C24.14646345 29.27862967 21.54821491 28.02896394 18 25 C16.09681116 22.14521674 15.5380901 20.58058692 14.875 17.3125 C14.70742188 16.50425781 14.53984375 15.69601563 14.3671875 14.86328125 C14.24601562 14.24839844 14.12484375 13.63351563 14 13 C11.69 13.33 9.38 13.66 7 14 C6.96261719 14.68707031 6.92523437 15.37414063 6.88671875 16.08203125 C6.82097656 16.98308594 6.75523438 17.88414063 6.6875 18.8125 C6.62949219 19.70582031 6.57148438 20.59914063 6.51171875 21.51953125 C5.9290745 24.34379918 5.3289646 25.33487329 3 27 C2.01 27 1.02 27 0 27 C0 18.09 0 9.18 0 0 Z " fill="#BDA5DE" transform="translate(11,5)"/>
<path d="M0 0 C4 1 4 1 6 3 C6 4.32 6 5.64 6 7 C7.98 6.67 9.96 6.34 12 6 C12.33 7.32 12.66 8.64 13 10 C13.66 10 14.32 10 15 10 C15 10.99 15 11.98 15 13 C12.36 13.33 9.72 13.66 7 14 C6.96261719 14.68707031 6.92523437 15.37414063 6.88671875 16.08203125 C6.82097656 16.98308594 6.75523438 17.88414063 6.6875 18.8125 C6.62949219 19.70582031 6.57148438 20.59914063 6.51171875 21.51953125 C5.9290745 24.34379918 5.3289646 25.33487329 3 27 C2.01 27 1.02 27 0 27 C0 18.09 0 9.18 0 0 Z " fill="#448DD8" transform="translate(11,5)"/>
<path d="M0 0 C3.23486594 0.70177877 4.89181195 1.36476494 7 4 C7 4.66 7 5.32 7 6 C7.66 6 8.32 6 9 6 C9.99 7.485 9.99 7.485 11 9 C12.27875 8.814375 13.5575 8.62875 14.875 8.4375 C18.75 7.875 18.75 7.875 21 9 C21.125 11.375 21.125 11.375 21 14 C18.62839852 16.37160148 17.99378878 16.31983352 14.75 16.375 C10.14646345 16.27862967 7.54821491 15.02896394 4 12 C2.09681116 9.14521674 1.5380901 7.58058692 0.875 4.3125 C0.70742188 3.50425781 0.53984375 2.69601563 0.3671875 1.86328125 C0.24601562 1.24839844 0.12484375 0.63351563 0 0 Z " fill="#F766BE" transform="translate(25,18)"/>
<path d="M0 0 C0.33 1.32 0.66 2.64 1 4 C1.66 4 2.32 4 3 4 C3 4.99 3 5.98 3 7 C0.36 7.33 -2.28 7.66 -5 8 C-5.03738281 8.68707031 -5.07476563 9.37414063 -5.11328125 10.08203125 C-5.17902344 10.98308594 -5.24476562 11.88414063 -5.3125 12.8125 C-5.37050781 13.70582031 -5.42851562 14.59914063 -5.48828125 15.51953125 C-6.06313581 18.30604 -6.8206856 19.24135754 -9 21 C-9.66 20.67 -10.32 20.34 -11 20 C-10.34 16.7 -9.68 13.4 -9 10 C-8.34 10 -7.68 10 -7 10 C-6.67 7.03 -6.34 4.06 -6 1 C-3 0 -3 0 0 0 Z " fill="#2E60A4" transform="translate(23,11)"/>
<path d="M0 0 C0.33 0.66 0.66 1.32 1 2 C3.12576782 2.46651207 3.12576782 2.46651207 5.5625 2.625 C6.38878906 2.69976562 7.21507812 2.77453125 8.06640625 2.8515625 C8.70449219 2.90054687 9.34257813 2.94953125 10 3 C9.67 3.99 9.34 4.98 9 6 C8.31292969 5.96519531 7.62585937 5.93039063 6.91796875 5.89453125 C5.56638672 5.85392578 5.56638672 5.85392578 4.1875 5.8125 C2.84751953 5.76029297 2.84751953 5.76029297 1.48046875 5.70703125 C-1.41647515 6.04918998 -2.22555028 6.75393573 -4 9 C-4.66 7.35 -5.32 5.7 -6 4 C-3.94766315 1.7522025 -2.99332739 0.9977758 0 0 Z " fill="#535EB9" transform="translate(36,10)"/>
<path d="M0 0 C4 1 4 1 6 3 C5.625 6.625 5.625 6.625 5 10 C3.35 10.33 1.7 10.66 0 11 C0 7.37 0 3.74 0 0 Z " fill="#61C1EC" transform="translate(11,5)"/>
<path d="M0 0 C4.58845763 1.14711441 5.54264494 2.08643453 8 6 C7.75 8.3125 7.75 8.3125 7 10 C5.35 9.67 3.7 9.34 2 9 C1.34 6.03 0.68 3.06 0 0 Z " fill="#DD3998" transform="translate(25,18)"/>
<path d="M0 0 C3.97145048 0.90260238 5.70890914 1.65528714 8.375 4.8125 C9.9791273 7.95905739 10.40603114 9.54873532 10 13 C8.82460004 12.07347299 7.65989423 11.13336613 6.5 10.1875 C5.8503125 9.66542969 5.200625 9.14335937 4.53125 8.60546875 C3 7 3 7 3 4 C2.34 4 1.68 4 1 4 C0.67 2.68 0.34 1.36 0 0 Z " fill="#B19EDF" transform="translate(23,11)"/>
<path d="M0 0 C0.33 1.32 0.66 2.64 1 4 C1.66 4 2.32 4 3 4 C3 4.99 3 5.98 3 7 C0.69 7.33 -1.62 7.66 -4 8 C-4 7.34 -4 6.68 -4 6 C-3.34 6 -2.68 6 -2 6 C-2 5.34 -2 4.68 -2 4 C-3.32 4 -4.64 4 -6 4 C-6 3.01 -6 2.02 -6 1 C-3 0 -3 0 0 0 Z " fill="#6B67B5" transform="translate(23,11)"/>
<path d="M0 0 C-0.875 3.875 -0.875 3.875 -2 5 C-3.51928038 5.07179964 -5.04167482 5.08392007 -6.5625 5.0625 C-7.38878906 5.05347656 -8.21507812 5.04445313 -9.06640625 5.03515625 C-9.70449219 5.02355469 -10.34257813 5.01195312 -11 5 C-11 4.34 -11 3.68 -11 3 C-9.54293274 2.49632243 -8.08429904 1.99717444 -6.625 1.5 C-5.81289063 1.2215625 -5.00078125 0.943125 -4.1640625 0.65625 C-2 0 -2 0 0 0 Z " fill="#CFA9E1" transform="translate(46,29)"/>
<path d="M0 0 C0 0.66 0 1.32 0 2 C-2.95664519 3.4783226 -5.74229737 3.06032783 -9 3 C-9.33 2.34 -9.66 1.68 -10 1 C-3.71428571 -1.42857143 -3.71428571 -1.42857143 0 0 Z " fill="#6F73CC" transform="translate(46,27)"/>
<path d="M0 0 C-7.71428571 6 -7.71428571 6 -11 6 C-10.03628506 3.59071265 -9.34789837 2.23992991 -7.1875 0.75 C-4.67678635 -0.11081611 -2.63651351 -0.14647297 0 0 Z " fill="#B4DCF7" transform="translate(40,8)"/>
<path d="M0 0 C0.33 0 0.66 0 1 0 C1.36923077 6.52307692 1.36923077 6.52307692 -0.5 8.9375 C-0.995 9.288125 -1.49 9.63875 -2 10 C-2.1953125 3.9453125 -2.1953125 3.9453125 -2 2 C-1.34 1.34 -0.68 0.68 0 0 Z " fill="#6094CC" transform="translate(13,22)"/>
<path d="M0 0 C0.66 0.33 1.32 0.66 2 1 C1.01 2.485 1.01 2.485 0 4 C0.66 4.33 1.32 4.66 2 5 C1.01 5.99 0.02 6.98 -1 8 C-1.66 6.35 -2.32 4.7 -3 3 C-2.01 2.01 -1.02 1.02 0 0 Z " fill="#5193CD" transform="translate(33,11)"/>
<path d="M0 0 C0.33 1.32 0.66 2.64 1 4 C-0.98 4.99 -2.96 5.98 -5 7 C-5 5.68 -5 4.36 -5 3 C-3.35 2.67 -1.7 2.34 0 2 C0 1.34 0 0.68 0 0 Z " fill="#4B98DC" transform="translate(16,13)"/>
<path d="M0 0 C-0.33 0.99 -0.66 1.98 -1 3 C-4.3 2.67 -7.6 2.34 -11 2 C-11 1.67 -11 1.34 -11 1 C-7.26513121 0.4254048 -3.78706732 0 0 0 Z " fill="#777CD1" transform="translate(46,13)"/>
<path d="M0 0 C1.5 1.25 1.5 1.25 3 3 C3 4.32 3 5.64 3 7 C2.01 7 1.02 7 0 7 C0 4.69 0 2.38 0 0 Z " fill="#8ED6F1" transform="translate(11,5)"/>
</svg>
